<!DOCTYPE svg PUBLIC "-//W3C//DTD SVG 1.1//EN" "http://www.w3.org/Graphics/SVG/1.1/DTD/svg11.dtd">
<!-- Uploaded to: SVG Repo, www.svgrepo.com, Transformed by: SVG Repo Mixer Tools -->
<svg fill="#ffffff" version="1.1" id="Layer_1" xmlns="http://www.w3.org/2000/svg" xmlns:xlink="http://www.w3.org/1999/xlink" viewBox="0 0 512 512" xml:space="preserve" width="256px" height="256px" stroke="#fffff">

<g id="SVGRepo_bgCarrier" stroke-width="0"/>

<g id="SVGRepo_tracerCarrier" stroke-linecap="round" stroke-linejoin="round"/>

<g id="SVGRepo_iconCarrier"> <g> <g> <path d="M401.067,0H110.933c-4.713,0-8.533,3.821-8.533,8.533v494.933c0,4.713,3.821,8.533,8.533,8.533h290.133 c4.713,0,8.533-3.821,8.533-8.533V8.533C409.6,3.821,405.779,0,401.067,0z M392.533,494.933H119.467V17.067h273.067V494.933z"/> </g> </g> <g> <g> <path d="M359.467,153.6h-59.733h-17.067h-51.2H214.4h-59.733c-4.713,0-9.6,3.821-9.6,8.533v59.733v17.067v51.2V307.2v51.2v17.067 V435.2c0,4.713,4.887,8.533,9.6,8.533h58.667H230.4h51.2h17.067h60.8c4.713,0,7.467-3.821,7.467-8.533v-59.733V358.4v-51.2 v-17.067v-51.2v-17.067v-59.733C366.933,157.421,364.179,153.6,359.467,153.6z M213.333,426.667h-51.2v-51.2h51.2V426.667z M213.333,358.4h-51.2v-51.2h51.2V358.4z M213.333,290.133h-51.2v-51.2h51.2V290.133z M213.333,221.867h-51.2v-51.2h51.2V221.867z M281.6,426.667h-51.2v-51.2h51.2V426.667z M281.6,358.4h-51.2v-51.2h51.2V358.4z M281.6,290.133h-51.2v-51.2h51.2V290.133z M281.6,221.867h-51.2v-51.2h51.2V221.867z M349.867,426.667h-51.2v-51.2h51.2V426.667z M349.867,358.4h-51.2v-51.2h51.2V358.4z M349.867,290.133h-51.2v-51.2h51.2V290.133z M349.867,221.867h-51.2v-51.2h51.2V221.867z"/> </g> </g> <g> <g> <path d="M364.083,64.333c-4.522-4.667-10.594-7-18.217-7c-7.667,0-13.755,2.333-18.267,7s-6.767,10.967-6.767,18.9 c0,7.845,2.245,14.123,6.733,18.833c4.49,4.71,10.478,7.067,17.966,7.067c7.845,0,14.028-2.323,18.55-6.967 c4.523-4.645,6.783-10.989,6.783-19.033C370.867,75.267,368.606,69,364.083,64.333z M356.117,97.15 c-2.567,3.455-6.05,5.183-10.45,5.183c-4.178,0-7.545-1.75-10.1-5.25c-2.556-3.5-3.833-8.127-3.833-13.883 c0-5.8,1.283-10.433,3.85-13.9c2.568-3.467,5.994-5.2,10.283-5.2c4.244,0,7.655,1.733,10.233,5.2 c2.578,3.467,3.867,8.067,3.867,13.8C359.967,89.011,358.683,93.694,356.117,97.15z"/> </g> </g> <g> <g> <path d="M175.033,82.246c7.888-2.467,11.833-6.723,11.833-12.656c0-3.577-1.295-6.812-3.883-8.678 c-2.588-1.867-6.361-3.311-11.317-3.311h-15.933v51.2H173.2c5.044,0,8.917-1.5,11.617-3.6s4.05-5.342,4.05-9.275 C188.867,89.125,184.256,84.491,175.033,82.246z M164.267,66.133h2.367c3.8,0,6.383,0.005,7.749,0.817 c1.368,0.812,2.051,2.15,2.051,4.417c0,2.444-0.85,4.195-2.549,5.617c-1.701,1.423-3.995,1.95-6.884,1.95h-2.733V66.133z M175.683,99.154c-1.633,0.923-4.605,1.113-8.917,1.113h-2.5V85.333h2.3c3.333,0,6.094,1.017,8.283,2.683 c2.189,1.667,3.283,3.847,3.283,6.358C178.133,96.82,177.317,98.231,175.683,99.154z"/> </g> </g> <g> <g> <path d="M296.775,64.1c3.955,0,10.425,1.055,14.692,3.167v-8.034c-4.267-1.267-10.217-1.9-15.617-1.9 c-8.445,0-14.725,2.233-19.293,6.7c-4.566,4.467-6.736,10.844-6.736,19.133c0,8.356,2.106,14.772,6.673,19.25 c4.567,4.478,10.928,6.717,19.44,6.717c4.489,0,11.267-0.8,15.533-2.4v-21.4h-8.533v16.4c-2.133,0.333-3.355,0.5-4.533,0.5 c-5.355,0-9.755-1.683-12.8-5.05c-3.045-3.367-4.667-8.006-4.667-13.917c0-6.111,1.372-10.833,4.217-14.167 C287.995,65.767,291.552,64.1,296.775,64.1z"/> </g> </g> <g> <g> <rect x="198.4" y="57.6" width="10.667" height="51.2"/> </g> </g> <g> <g> <polygon points="251.733,57.6 251.733,92.267 229.567,57.6 219.733,57.6 219.733,108.8 228.267,108.8 228.267,74.2 251.467,108.8 260.267,108.8 260.267,57.6 "/> </g> </g> </g>

</svg>

